<svg viewBox="0 0 1080 1080" fill="none" xmlns="http://www.w3.org/2000/svg">    <g id="notion-avatar-face">      <!--?xml version="1.0" encoding="UTF-8"?-->    <title>Face/ 4</title>    <g id="Face/-4" stroke="none" stroke-width="1" fill="none" fill-rule="evenodd" stroke-linecap="round" stroke-linejoin="round">        <path d="M532,379 C664.54834,379 772,486.45166 772,619 C772,751.54834 764.54834,899 592,899 C462.715227,899 358.747776,816.220491 314.739381,718.954345 C313.831676,718.98455 312.917642,719 312,719 C267.81722,719 232,683.18278 232,639 C232,599.134956 261.158843,566.080325 299.312086,560.00055 C325.599297,455.979213 419.809919,379 532,379 Z M295.858895,624.545187 L304.141105,655.454813" id="Path" stroke="#000000" stroke-width="24"/>    </g>    </g><g id="notion-avatar-nose">      <!--?xml version="1.0" encoding="UTF-8"?-->    <title>Nose/ 3</title>    <g id="Nose/-3" stroke="none" stroke-width="1" fill="none" fill-rule="evenodd" stroke-linecap="round" stroke-linejoin="round">        <path d="M636.843465,595.910607 C654.994141,637.483681 663.279537,666.31686 661.699654,682.410144 C660.11977,698.503428 648.515798,703.474491 626.887739,697.323331" id="Line" stroke="#000000" stroke-width="16" transform="translate(644.388576, 647.892684) rotate(1.032339) translate(-644.388576, -647.892684) "/>    </g>    </g><g id="notion-avatar-mouth">      <!--?xml version="1.0" encoding="UTF-8"?-->    <title>Mouth/ 0</title>    <g id="Mouth/-0" stroke="none" stroke-width="1" fill="none" fill-rule="evenodd" stroke-linecap="round" stroke-linejoin="round">        <path d="M549,759 C576.33038,765.666667 599.663714,769 619,769 C638.336286,769 655.002953,765.666667 669,759" id="Path" stroke="#000000" stroke-width="16"/>    </g>    </g><g id="notion-avatar-eyes">      <!--?xml version="1.0" encoding="UTF-8"?-->    <title>Eyes/ 4</title>    <g id="Eyes/-4" stroke="none" stroke-width="1" fill="none" fill-rule="evenodd">        <path d="M570,516 C583.254834,516 594,526.745166 594,540 C594,553.254834 583.254834,564 570,564 C556.745166,564 546,553.254834 546,540 C546,526.745166 556.745166,516 570,516 Z M708,516 C721.254834,516 732,526.745166 732,540 C732,553.254834 721.254834,564 708,564 C694.745166,564 684,553.254834 684,540 C684,526.745166 694.745166,516 708,516 Z M562,526 C558.686292,526 556,528.686292 556,532 C556,535.313708 558.686292,538 562,538 C565.313708,538 568,535.313708 568,532 C568,528.686292 565.313708,526 562,526 Z M700,526 C696.686292,526 694,528.686292 694,532 C694,535.313708 696.686292,538 700,538 C703.313708,538 706,535.313708 706,532 C706,528.686292 703.313708,526 700,526 Z" id="Combined-Shape" fill="#000000"/>    </g>    </g><g id="notion-avatar-eyebrows">      <!--?xml version="1.0" encoding="UTF-8"?-->    <title>Eyebrows/ 9</title>    <g id="Eyebrows/-9" stroke="none" stroke-width="1" fill="none" fill-rule="evenodd" stroke-linecap="round" stroke-linejoin="round">        <g id="Group" transform="translate(502.000000, 462.000000)" stroke="#000000" stroke-width="24">            <path d="M0,0 C0,0 23.2233275,2.61265093 76,22 C79.9624314,23.4555871 87.2957648,28.1222537 98,36" id="Path"/>            <path d="M176,0 C176,0 199.223328,2.61265093 252,22 C255.962431,23.4555871 263.295765,28.1222537 274,36" id="Path" transform="translate(225.000000, 18.000000) scale(-1, 1) translate(-225.000000, -18.000000) "/>        </g>    </g>    </g><g id="notion-avatar-glasses">      <!--?xml version="1.0" encoding="UTF-8"?-->    <title>Glasses/ 0</title>    <g id="Glasses/-0" stroke="none" stroke-width="1" fill="none" fill-rule="evenodd"/>    </g><g id="notion-avatar-hair">      <!--?xml version="1.0" encoding="UTF-8"?-->    <title>Hairstyle/ 13</title>    <g id="Hairstyle/-13" stroke="none" stroke-width="1" fill="none" fill-rule="evenodd" stroke-linecap="round" stroke-linejoin="round">        <g id="Group" transform="translate(266.170240, 340.000000)" stroke="#000000" stroke-width="12">            <path d="M20.9755327,224.824988 L61.9464226,224.824988 L99.82976,315 C117.406103,234.554316 126.194275,188.467337 126.194275,176.739062 C126.194275,159.14665 89.4212949,136.044745 113.125527,105.522372 C124.789561,90.5033682 139.00015,81.8765075 155.047131,77.8362154 C171.611628,73.6656236 192.82976,42 154.82976,25 C116.82976,8 8.82976,56 0.829760002,115 C-2.50467269,139.591441 4.21058488,176.19977 20.9755327,224.824988 Z" id="Path" fill="#000000"/>            <path d="M156.82976,10 C170.163093,11.3333333 180.163093,18.3333333 186.82976,31 C193.496427,43.6666667 193.496427,57 186.82976,71" id="Path"/>            <path d="M179.82976,4 C193.163093,5.33333333 203.163093,12.3333333 209.82976,25 C216.496427,37.6666667 216.496427,51 209.82976,65" id="Path"/>            <path d="M202.82976,0 C216.163093,1.33333333 226.163093,8.33333333 232.82976,21 C239.496427,33.6666667 239.496427,47 232.82976,61" id="Path"/>            <path d="M225.82976,0 C239.163093,1.33333333 249.163093,8.33333333 255.82976,21 C262.496427,33.6666667 262.496427,47 255.82976,61" id="Path"/>            <path d="M248.82976,0 C262.163093,1.33333333 272.163093,8.33333333 278.82976,21 C285.496427,33.6666667 285.496427,47 278.82976,61" id="Path"/>            <path d="M271.82976,0 C285.163093,1.33333333 295.163093,8.33333333 301.82976,21 C308.496427,33.6666667 308.496427,47 301.82976,61" id="Path"/>            <path d="M294.82976,4 C308.163093,5.33333333 318.163093,12.3333333 324.82976,25 C331.496427,37.6666667 331.496427,51 324.82976,65" id="Path"/>            <path d="M317.82976,6 C331.163093,7.33333333 341.163093,14.3333333 347.82976,27 C354.496427,39.6666667 354.496427,53 347.82976,67" id="Path"/>            <path d="M355.82976,51 L352.82976,22 C366.163093,23.3333333 376.163093,30.3333333 382.82976,43 C387.885083,52.6051144 389.106963,62.5935731 386.495398,72.9653763 L355.82976,51 Z" id="Path" fill="#000000"/>        </g>    </g>    </g><g id="notion-avatar-accessories">      <!--?xml version="1.0" encoding="UTF-8"?-->    <title>Accessories/ 0</title>    <g id="Accessories/-0" stroke="none" stroke-width="1" fill="none" fill-rule="evenodd"/>    </g><g id="notion-avatar-details">      <!--?xml version="1.0" encoding="UTF-8"?-->    <title>Details/ 0</title>    <g id="Details/-0" stroke="none" stroke-width="1" fill="none" fill-rule="evenodd"/>    </g><g id="notion-avatar-beard">      <!--?xml version="1.0" encoding="UTF-8"?-->    <title>Beard/ 1</title>    <g id="Beard/-1" stroke="none" stroke-width="1" fill="none" fill-rule="evenodd" stroke-linecap="round" stroke-linejoin="round">        <g id="Group" transform="translate(365.000000, 654.000000)" stroke="#000000">            <path d="M22,0 C48,64 71,96 91,96 C121,96 115,47 167,47 C219,47 210,72 262,72 C286.700743,72 329,54 353,47 C369,42.3333333 387,41 407,43 C393.666667,175.666667 334.333333,242 229,242 C69.6666667,242 -6.33333333,161.333333 1,0 L22,0 Z M324,85 C308.372818,69.9446471 296.164856,90.0896483 249,90.351705 C201.835144,90.6137616 166.573326,68.2991479 157,93 C147.426674,117.700852 181.981237,140.31964 255.653458,140.351729 C329.325678,140.383517 339.627182,100.055353 324,85 Z" id="Combined-Shape" stroke-width="12" fill="#000000"/>            <path d="M184,105 C211.33038,111.666667 234.663714,115 254,115 C273.336286,115 290.002953,111.666667 304,105" id="Path" stroke-width="16"/>        </g>    </g>    </g>      </svg>